<svg width="18" height="19" viewBox="0 0 18 19" fill="none" xmlns="http://www.w3.org/2000/svg">
<path d="M14.52 1.94006H13.86V1.28006C13.86 1.08006 13.79 0.910059 13.65 0.77006C13.51 0.630058 13.34 0.560059 13.14 0.560059C12.94 0.560059 12.77 0.630058 12.63 0.77006C12.49 0.910059 12.42 1.08006 12.42 1.28006V1.94006H5.58V1.28006C5.58 1.08006 5.51 0.910059 5.37 0.77006C5.23 0.630058 5.06 0.560059 4.86 0.560059C4.66 0.560059 4.49 0.630058 4.35 0.77006C4.21 0.910059 4.14 1.08006 4.14 1.28006V1.94006H3.48C2.84 1.94006 2.26 2.10006 1.74 2.42006C1.22 2.74006 0.8 3.16006 0.48 3.68006C0.16 4.20006 0 4.78006 0 5.42006V15.0801C0 15.7201 0.16 16.3001 0.48 16.8201C0.8 17.3401 1.22 17.7601 1.74 18.0801C2.26 18.4001 2.84 18.5601 3.48 18.5601H14.52C15.16 18.5601 15.74 18.4001 16.26 18.0801C16.78 17.7601 17.2 17.3401 17.52 16.8201C17.84 16.3001 18 15.7201 18 15.0801V5.42006C18 4.78006 17.84 4.20006 17.52 3.68006C17.2 3.16006 16.78 2.74006 16.26 2.42006C15.74 2.10006 15.16 1.94006 14.52 1.94006ZM3.48 3.38006H4.14V4.70006C4.14 4.90006 4.21 5.07006 4.35 5.21006C4.49 5.35006 4.66 5.42006 4.86 5.42006C5.06 5.42006 5.23 5.35006 5.37 5.21006C5.51 5.07006 5.58 4.90006 5.58 4.70006V3.38006H12.42V4.70006C12.42 4.90006 12.49 5.07006 12.63 5.21006C12.77 5.35006 12.94 5.42006 13.14 5.42006C13.34 5.42006 13.51 5.35006 13.65 5.21006C13.79 5.07006 13.86 4.90006 13.86 4.70006V3.38006H14.52C15.08 3.38006 15.57 3.58006 15.99 3.98006C16.41 4.38006 16.62 4.86006 16.62 5.42006V6.08006H1.38V5.42006C1.38 4.86006 1.59 4.38006 2.01 3.98006C2.43 3.58006 2.92 3.38006 3.48 3.38006ZM14.52 17.1801H3.48C2.92 17.1801 2.43 16.9701 2.01 16.5501C1.59 16.1301 1.38 15.6401 1.38 15.0801V7.52006H16.62V15.0801C16.62 15.6401 16.41 16.1301 15.99 16.5501C15.57 16.9701 15.08 17.1801 14.52 17.1801ZM6.24 10.2801C6.24 10.4801 6.17 10.6401 6.03 10.7601C5.89 10.8801 5.72 10.9401 5.52 10.9401H4.14C3.94 10.9401 3.78 10.8801 3.66 10.7601C3.54 10.6401 3.48 10.4801 3.48 10.2801C3.48 10.0801 3.54 9.91006 3.66 9.77006C3.78 9.63006 3.94 9.56006 4.14 9.56006H5.52C5.72 9.56006 5.89 9.63006 6.03 9.77006C6.17 9.91006 6.24 10.0801 6.24 10.2801ZM14.52 10.2801C14.52 10.4801 14.46 10.6401 14.34 10.7601C14.22 10.8801 14.06 10.9401 13.86 10.9401H12.48C12.28 10.9401 12.11 10.8801 11.97 10.7601C11.83 10.6401 11.76 10.4801 11.76 10.2801C11.76 10.0801 11.83 9.91006 11.97 9.77006C12.11 9.63006 12.28 9.56006 12.48 9.56006H13.86C14.06 9.56006 14.22 9.63006 14.34 9.77006C14.46 9.91006 14.52 10.0801 14.52 10.2801ZM10.38 10.2801C10.38 10.4801 10.31 10.6401 10.17 10.7601C10.03 10.8801 9.86 10.9401 9.66 10.9401H8.28C8.12 10.9401 7.97 10.8801 7.83 10.7601C7.69 10.6401 7.62 10.4801 7.62 10.2801C7.62 10.0801 7.69 9.91006 7.83 9.77006C7.97 9.63006 8.12 9.56006 8.28 9.56006H9.66C9.86 9.56006 10.03 9.63006 10.17 9.77006C10.31 9.91006 10.38 10.0801 10.38 10.2801ZM6.24 14.4201C6.24 14.6201 6.17 14.7901 6.03 14.9301C5.89 15.0701 5.72 15.1401 5.52 15.1401H4.14C3.94 15.1401 3.78 15.0701 3.66 14.9301C3.54 14.7901 3.48 14.6201 3.48 14.4201C3.48 14.2201 3.54 14.0501 3.66 13.9101C3.78 13.7701 3.94 13.7001 4.14 13.7001H5.52C5.72 13.7001 5.89 13.7701 6.03 13.9101C6.17 14.0501 6.24 14.2201 6.24 14.4201ZM14.52 14.4201C14.52 14.6201 14.46 14.7901 14.34 14.9301C14.22 15.0701 14.06 15.1401 13.86 15.1401H12.48C12.28 15.1401 12.11 15.0701 11.97 14.9301C11.83 14.7901 11.76 14.6201 11.76 14.4201C11.76 14.2201 11.83 14.0501 11.97 13.9101C12.11 13.7701 12.28 13.7001 12.48 13.7001H13.86C14.06 13.7001 14.22 13.7701 14.34 13.9101C14.46 14.0501 14.52 14.2201 14.52 14.4201ZM10.38 14.4201C10.38 14.6201 10.31 14.7901 10.17 14.9301C10.03 15.0701 9.86 15.1401 9.66 15.1401H8.28C8.12 15.1401 7.97 15.0701 7.83 14.9301C7.69 14.7901 7.62 14.6201 7.62 14.4201C7.62 14.2201 7.69 14.0501 7.83 13.9101C7.97 13.7701 8.12 13.7001 8.28 13.7001H9.66C9.86 13.7001 10.03 13.7701 10.17 13.9101C10.31 14.0501 10.38 14.2201 10.38 14.4201Z" fill="#050B20"/>
</svg>
