<svg width="18" height="19" viewBox="0 0 18 19" fill="none" xmlns="http://www.w3.org/2000/svg">
<path d="M10.6791 3.92006C10.6791 3.76006 10.6291 3.63006 10.5291 3.53006C10.4291 3.43006 10.2991 3.38006 10.1391 3.38006H4.49906C4.33906 3.38006 4.20906 3.43006 4.10906 3.53006C4.00906 3.63006 3.95906 3.76006 3.95906 3.92006V8.42006C3.95906 8.58006 4.00906 8.72006 4.10906 8.84006C4.20906 8.96006 4.33906 9.02006 4.49906 9.02006H10.1391C10.2991 9.02006 10.4291 8.96006 10.5291 8.84006C10.6291 8.72006 10.6791 8.58006 10.6791 8.42006V3.92006ZM9.53906 7.88006H5.03906V4.52006H9.53906V7.88006ZM17.1591 4.52006L14.8791 3.44006C14.7591 3.36006 14.6191 3.34006 14.4591 3.38006C14.2991 3.42006 14.1891 3.51006 14.1291 3.65006C14.0691 3.79006 14.0591 3.94006 14.0991 4.10006C14.1391 4.26006 14.2391 4.36006 14.3991 4.40006L15.2391 4.88006L15.1791 5.06006C15.1791 5.42006 15.2891 5.74006 15.5091 6.02006C15.7291 6.30006 15.9991 6.50006 16.3191 6.62006V13.4601C16.3191 13.6201 16.2591 13.7601 16.1391 13.8801C16.0191 14.0001 15.8891 14.0601 15.7491 14.0601C15.6091 14.0601 15.4791 14.0001 15.3591 13.8801C15.2391 13.7601 15.1791 13.6201 15.1791 13.4601V8.96006C15.1791 8.32006 14.9491 7.74006 14.4891 7.22006C14.0291 6.70006 13.5191 6.38006 12.9591 6.26006V2.78006C12.9591 2.18006 12.7391 1.66006 12.2991 1.22006C11.8591 0.78006 11.3391 0.560059 10.7391 0.560059H3.95906C3.35906 0.560059 2.82906 0.78006 2.36906 1.22006C1.90906 1.66006 1.67906 2.18006 1.67906 2.78006V15.3801L0.899062 15.8001C0.659062 15.9201 0.539062 16.0801 0.539062 16.2801V17.9601C0.539062 18.1201 0.599062 18.2601 0.719062 18.3801C0.839062 18.5001 0.979062 18.5601 1.13906 18.5601H13.4991C13.6591 18.5601 13.7891 18.5001 13.8891 18.3801C13.9891 18.2601 14.0391 18.1201 14.0391 17.9601V16.2801C14.0391 16.0801 13.9391 15.9201 13.7391 15.8001L12.9591 15.3801V7.40006C13.2391 7.52006 13.4891 7.73006 13.7091 8.03006C13.9291 8.33006 14.0391 8.64006 14.0391 8.96006V13.4601C14.0391 13.9401 14.2091 14.3501 14.5491 14.6901C14.8891 15.0301 15.2891 15.2001 15.7491 15.2001C16.2091 15.2001 16.6091 15.0301 16.9491 14.6901C17.2891 14.3501 17.4591 13.9401 17.4591 13.4601V5.06006C17.4591 4.82006 17.3591 4.64006 17.1591 4.52006ZM12.9591 17.4201H1.67906V16.6401L2.51906 16.2201C2.71906 16.1401 2.81906 15.9801 2.81906 15.7401V2.78006C2.81906 2.50006 2.92906 2.25006 3.14906 2.03006C3.36906 1.81006 3.63906 1.70006 3.95906 1.70006H10.7391C11.0191 1.70006 11.2691 1.81006 11.4891 2.03006C11.7091 2.25006 11.8191 2.50006 11.8191 2.78006V15.7401C11.8191 15.9801 11.9191 16.1401 12.1191 16.2201L12.9591 16.6401V17.4201Z" fill="#050B20"/>
</svg>
