<svg width="18" height="15" viewBox="0 0 18 15" fill="none" xmlns="http://www.w3.org/2000/svg">
<path d="M3.00094 0.240005C2.44094 0.240005 1.96094 0.440005 1.56094 0.840005C1.16094 1.24001 0.960938 1.73001 0.960938 2.31001C0.960938 2.89001 1.16094 3.38 1.56094 3.78001C1.96094 4.18001 2.44094 4.38 3.00094 4.38C3.56094 4.38 4.04094 4.18001 4.44094 3.78001C4.84094 3.38 5.04094 2.89001 5.04094 2.31001C5.04094 1.73001 4.84094 1.24001 4.44094 0.840005C4.04094 0.440005 3.56094 0.240005 3.00094 0.240005ZM3.00094 1.38C3.24094 1.38 3.46094 1.47001 3.66094 1.65001C3.86094 1.83001 3.96094 2.05 3.96094 2.31001C3.96094 2.57001 3.86094 2.79 3.66094 2.97001C3.46094 3.15001 3.24094 3.24001 3.00094 3.24001C2.76094 3.24001 2.54094 3.15001 2.34094 2.97001C2.14094 2.79 2.04094 2.57001 2.04094 2.31001C2.04094 2.05 2.14094 1.83001 2.34094 1.65001C2.54094 1.47001 2.76094 1.38 3.00094 1.38ZM3.00094 10.74C2.44094 10.74 1.96094 10.94 1.56094 11.34C1.16094 11.74 0.960938 12.23 0.960938 12.81C0.960938 13.39 1.16094 13.88 1.56094 14.28C1.96094 14.68 2.44094 14.88 3.00094 14.88C3.56094 14.88 4.04094 14.68 4.44094 14.28C4.84094 13.88 5.04094 13.39 5.04094 12.81C5.04094 12.23 4.84094 11.74 4.44094 11.34C4.04094 10.94 3.56094 10.74 3.00094 10.74ZM3.00094 11.88C3.24094 11.88 3.46094 11.97 3.66094 12.15C3.86094 12.33 3.96094 12.55 3.96094 12.81C3.96094 13.07 3.86094 13.29 3.66094 13.47C3.46094 13.65 3.24094 13.74 3.00094 13.74C2.76094 13.74 2.54094 13.65 2.34094 13.47C2.14094 13.29 2.04094 13.07 2.04094 12.81C2.04094 12.55 2.14094 12.33 2.34094 12.15C2.54094 11.97 2.76094 11.88 3.00094 11.88ZM9.00094 0.240005C8.44094 0.240005 7.96094 0.440005 7.56094 0.840005C7.16094 1.24001 6.96094 1.73001 6.96094 2.31001C6.96094 2.89001 7.16094 3.38 7.56094 3.78001C7.96094 4.18001 8.44094 4.38 9.00094 4.38C9.56094 4.38 10.0409 4.18001 10.4409 3.78001C10.8409 3.38 11.0409 2.89001 11.0409 2.31001C11.0409 1.73001 10.8409 1.24001 10.4409 0.840005C10.0409 0.440005 9.56094 0.240005 9.00094 0.240005ZM9.00094 1.38C9.24094 1.38 9.46094 1.47001 9.66094 1.65001C9.86094 1.83001 9.96094 2.05 9.96094 2.31001C9.96094 2.57001 9.86094 2.79 9.66094 2.97001C9.46094 3.15001 9.24094 3.24001 9.00094 3.24001C8.76094 3.24001 8.54094 3.15001 8.34094 2.97001C8.14094 2.79 8.04094 2.57001 8.04094 2.31001C8.04094 2.05 8.14094 1.83001 8.34094 1.65001C8.54094 1.47001 8.76094 1.38 9.00094 1.38ZM9.00094 10.74C8.44094 10.74 7.96094 10.94 7.56094 11.34C7.16094 11.74 6.96094 12.23 6.96094 12.81C6.96094 13.39 7.16094 13.88 7.56094 14.28C7.96094 14.68 8.44094 14.88 9.00094 14.88C9.56094 14.88 10.0409 14.68 10.4409 14.28C10.8409 13.88 11.0409 13.39 11.0409 12.81C11.0409 12.23 10.8409 11.74 10.4409 11.34C10.0409 10.94 9.56094 10.74 9.00094 10.74ZM9.00094 11.88C9.24094 11.88 9.46094 11.97 9.66094 12.15C9.86094 12.33 9.96094 12.55 9.96094 12.81C9.96094 13.07 9.86094 13.29 9.66094 13.47C9.46094 13.65 9.24094 13.74 9.00094 13.74C8.76094 13.74 8.54094 13.65 8.34094 13.47C8.14094 13.29 8.04094 13.07 8.04094 12.81C8.04094 12.55 8.14094 12.33 8.34094 12.15C8.54094 11.97 8.76094 11.88 9.00094 11.88ZM15.0009 0.240005C14.4409 0.240005 13.9609 0.440005 13.5609 0.840005C13.1609 1.24001 12.9609 1.73001 12.9609 2.31001C12.9609 2.89001 13.1609 3.38 13.5609 3.78001C13.9609 4.18001 14.4409 4.38 15.0009 4.38C15.5609 4.38 16.0409 4.18001 16.4409 3.78001C16.8409 3.38 17.0409 2.89001 17.0409 2.31001C17.0409 1.73001 16.8409 1.24001 16.4409 0.840005C16.0409 0.440005 15.5609 0.240005 15.0009 0.240005ZM15.0009 1.38C15.2409 1.38 15.4609 1.47001 15.6609 1.65001C15.8609 1.83001 15.9609 2.05 15.9609 2.31001C15.9609 2.57001 15.8609 2.79 15.6609 2.97001C15.4609 3.15001 15.2409 3.24001 15.0009 3.24001C14.7609 3.24001 14.5409 3.15001 14.3409 2.97001C14.1409 2.79 14.0409 2.57001 14.0409 2.31001C14.0409 2.05 14.1409 1.83001 14.3409 1.65001C14.5409 1.47001 14.7609 1.38 15.0009 1.38ZM15.0009 10.74C14.4409 10.74 13.9609 10.94 13.5609 11.34C13.1609 11.74 12.9609 12.23 12.9609 12.81C12.9609 13.39 13.1609 13.88 13.5609 14.28C13.9609 14.68 14.4409 14.88 15.0009 14.88C15.5609 14.88 16.0409 14.68 16.4409 14.28C16.8409 13.88 17.0409 13.39 17.0409 12.81C17.0409 12.23 16.8409 11.74 16.4409 11.34C16.0409 10.94 15.5609 10.74 15.0009 10.74ZM15.0009 11.88C15.2409 11.88 15.4609 11.97 15.6609 12.15C15.8609 12.33 15.9609 12.55 15.9609 12.81C15.9609 13.07 15.8609 13.29 15.6609 13.47C15.4609 13.65 15.2409 13.74 15.0009 13.74C14.7609 13.74 14.5409 13.65 14.3409 13.47C14.1409 13.29 14.0409 13.07 14.0409 12.81C14.0409 12.55 14.1409 12.33 14.3409 12.15C14.5409 11.97 14.7609 11.88 15.0009 11.88ZM2.46094 3.78001V11.28C2.46094 11.44 2.51094 11.58 2.61094 11.7C2.71094 11.82 2.84094 11.88 3.00094 11.88C3.16094 11.88 3.29094 11.82 3.39094 11.7C3.49094 11.58 3.54094 11.46 3.54094 11.34V3.78001C3.54094 3.66001 3.49094 3.54 3.39094 3.42C3.29094 3.3 3.16094 3.24001 3.00094 3.24001C2.84094 3.24001 2.71094 3.3 2.61094 3.42C2.51094 3.54 2.46094 3.66001 2.46094 3.78001ZM8.46094 3.78001V11.28C8.46094 11.44 8.51094 11.58 8.61094 11.7C8.71094 11.82 8.84094 11.88 9.00094 11.88C9.16094 11.88 9.29094 11.82 9.39094 11.7C9.49094 11.58 9.54094 11.46 9.54094 11.34V3.78001C9.54094 3.66001 9.49094 3.54 9.39094 3.42C9.29094 3.3 9.16094 3.24001 9.00094 3.24001C8.84094 3.24001 8.71094 3.3 8.61094 3.42C8.51094 3.54 8.46094 3.66001 8.46094 3.78001ZM14.4609 3.78001V6.78001C14.4609 6.86001 14.4409 6.92 14.4009 6.96001C14.3609 7.00001 14.3209 7.02001 14.2809 7.02001H3.00094C2.84094 7.02001 2.71094 7.07 2.61094 7.17C2.51094 7.27001 2.46094 7.4 2.46094 7.56001C2.46094 7.72001 2.51094 7.85001 2.61094 7.95001C2.71094 8.05 2.84094 8.10001 3.00094 8.10001H14.2809C14.6409 8.10001 14.9409 7.98001 15.1809 7.74001C15.4209 7.50001 15.5409 7.18001 15.5409 6.78001V3.84C15.5409 3.68001 15.4909 3.54 15.3909 3.42C15.2909 3.3 15.1609 3.24001 15.0009 3.24001C14.8409 3.24001 14.7109 3.3 14.6109 3.42C14.5109 3.54 14.4609 3.66001 14.4609 3.78001Z" fill="#050B20"/>
</svg>
