<svg width="18" height="15" viewBox="0 0 18 15" fill="none" xmlns="http://www.w3.org/2000/svg">
<path d="M18 9.18002C18 11.22 17.4 13.04 16.2 14.64C16.08 14.8 15.92 14.89 15.72 14.91C15.52 14.93 15.34 14.88 15.18 14.76C15.02 14.64 14.93 14.49 14.91 14.31C14.89 14.13 14.94 13.96 15.06 13.8C16.1 12.44 16.62 10.9 16.62 9.18002C16.62 7.82002 16.28 6.56002 15.6 5.40002C14.92 4.24002 13.99 3.32002 12.81 2.64002C11.63 1.96002 10.36 1.62002 9 1.62002C7.64 1.62002 6.37 1.96002 5.19 2.64002C4.01 3.32002 3.08 4.24002 2.4 5.40002C1.72 6.56002 1.38 7.82002 1.38 9.18002C1.38 10.9 1.9 12.44 2.94 13.8C3.06 13.96 3.11 14.13 3.09 14.31C3.07 14.49 2.98 14.64 2.82 14.76C2.66 14.88 2.48 14.93 2.28 14.91C2.08 14.89 1.92 14.8 1.8 14.64C0.6 13.04 0 11.22 0 9.18002C0 7.58002 0.4 6.09002 1.2 4.71002C2 3.33002 3.09 2.24002 4.47 1.44002C5.85 0.640021 7.36 0.240022 9 0.240022C10.64 0.240022 12.15 0.640021 13.53 1.44002C14.91 2.24002 16 3.33002 16.8 4.71002C17.6 6.09002 18 7.58002 18 9.18002ZM13.44 4.98002C13.6 5.10002 13.68 5.26002 13.68 5.46002C13.68 5.66002 13.6 5.82002 13.44 5.94002L11.16 8.28002C11.36 8.64002 11.46 9.02002 11.46 9.42002C11.46 10.1 11.22 10.68 10.74 11.16C10.26 11.64 9.68 11.88 9 11.88C8.32 11.88 7.74 11.64 7.26 11.16C6.78 10.68 6.54 10.1 6.54 9.42002C6.54 8.74002 6.78 8.16002 7.26 7.68002C7.74 7.20002 8.32 6.96002 9 6.96002C9.4 6.96002 9.78 7.06002 10.14 7.26002L12.48 4.98002C12.6 4.82002 12.76 4.74002 12.96 4.74002C13.16 4.74002 13.32 4.82002 13.44 4.98002ZM10.08 9.42002C10.08 9.14002 9.97 8.90002 9.75 8.70002C9.53 8.50002 9.28 8.40002 9 8.40002C8.72 8.40002 8.47 8.50002 8.25 8.70002C8.03 8.90002 7.92 9.14002 7.92 9.42002C7.92 9.70002 8.03 9.95002 8.25 10.17C8.47 10.39 8.72 10.5 9 10.5C9.28 10.5 9.53 10.39 9.75 10.17C9.97 9.95002 10.08 9.70002 10.08 9.42002Z" fill="#050B20"/>
</svg>
