<svg width="111" height="27" viewBox="0 0 111 27" fill="none" xmlns="http://www.w3.org/2000/svg">
<path d="M0.476 0.799998H11.276V4.4H4.436V11.06H9.872V14.66H4.436V22.4H11.276V26H0.476V0.799998ZM19.3141 26.36C17.3941 26.36 15.9301 25.82 14.9221 24.74C13.9141 23.636 13.4101 22.064 13.4101 20.024V0.799998H17.3701V20.312C17.3701 21.176 17.5381 21.8 17.8741 22.184C18.2341 22.568 18.7381 22.76 19.3861 22.76C20.0341 22.76 20.5261 22.568 20.8621 22.184C21.2221 21.8 21.4021 21.176 21.4021 20.312V0.799998H25.2181V20.024C25.2181 22.064 24.7141 23.636 23.7061 24.74C22.6981 25.82 21.2341 26.36 19.3141 26.36ZM28.0385 0.799998H33.9065C35.9465 0.799998 37.4345 1.28 38.3705 2.24C39.3065 3.176 39.7745 4.628 39.7745 6.596V8.144C39.7745 10.76 38.9105 12.416 37.1825 13.112V13.184C38.1425 13.472 38.8145 14.06 39.1985 14.948C39.6065 15.836 39.8105 17.024 39.8105 18.512V22.94C39.8105 23.66 39.8345 24.248 39.8825 24.704C39.9305 25.136 40.0505 25.568 40.2425 26H36.2105C36.0665 25.592 35.9705 25.208 35.9225 24.848C35.8745 24.488 35.8505 23.84 35.8505 22.904V18.296C35.8505 17.144 35.6585 16.34 35.2745 15.884C34.9145 15.428 34.2785 15.2 33.3665 15.2H31.9985V26H28.0385V0.799998ZM33.4385 11.6C34.2305 11.6 34.8185 11.396 35.2025 10.988C35.6105 10.58 35.8145 9.896 35.8145 8.936V6.992C35.8145 6.08 35.6465 5.42 35.3105 5.012C34.9985 4.604 34.4945 4.4 33.7985 4.4H31.9985V11.6H33.4385ZM48.282 26.36C46.338 26.36 44.85 25.808 43.818 24.704C42.786 23.6 42.27 22.04 42.27 20.024V6.776C42.27 4.76 42.786 3.2 43.818 2.096C44.85 0.991999 46.338 0.439999 48.282 0.439999C50.226 0.439999 51.714 0.991999 52.746 2.096C53.778 3.2 54.294 4.76 54.294 6.776V20.024C54.294 22.04 53.778 23.6 52.746 24.704C51.714 25.808 50.226 26.36 48.282 26.36ZM48.282 22.76C49.65 22.76 50.334 21.932 50.334 20.276V6.524C50.334 4.868 49.65 4.04 48.282 4.04C46.914 4.04 46.23 4.868 46.23 6.524V20.276C46.23 21.932 46.914 22.76 48.282 22.76ZM62.5521 26.36C60.6561 26.36 59.2041 25.82 58.1961 24.74C57.2121 23.66 56.7201 22.136 56.7201 20.168V6.632C56.7201 4.664 57.2121 3.14 58.1961 2.06C59.2041 0.979999 60.6561 0.439999 62.5521 0.439999C64.4481 0.439999 65.8881 0.979999 66.8721 2.06C67.8801 3.14 68.3841 4.664 68.3841 6.632V9.296H64.6401V6.38C64.6401 4.82 63.9801 4.04 62.6601 4.04C61.3401 4.04 60.6801 4.82 60.6801 6.38V20.456C60.6801 21.992 61.3401 22.76 62.6601 22.76C63.9801 22.76 64.6401 21.992 64.6401 20.456V16.604H68.3841V20.168C68.3841 22.136 67.8801 23.66 66.8721 24.74C65.8881 25.82 64.4481 26.36 62.5521 26.36ZM73.8133 0.799998H79.1773L83.2813 26H79.3213L78.6013 20.996V21.068H74.1013L73.3813 26H69.7093L73.8133 0.799998ZM78.1333 17.648L76.3693 5.192H76.2973L74.5693 17.648H78.1333ZM85.2026 0.799998H91.0706C93.1106 0.799998 94.5986 1.28 95.5346 2.24C96.4706 3.176 96.9386 4.628 96.9386 6.596V8.144C96.9386 10.76 96.0746 12.416 94.3466 13.112V13.184C95.3066 13.472 95.9786 14.06 96.3626 14.948C96.7706 15.836 96.9746 17.024 96.9746 18.512V22.94C96.9746 23.66 96.9986 24.248 97.0466 24.704C97.0946 25.136 97.2146 25.568 97.4066 26H93.3746C93.2306 25.592 93.1346 25.208 93.0866 24.848C93.0386 24.488 93.0146 23.84 93.0146 22.904V18.296C93.0146 17.144 92.8226 16.34 92.4386 15.884C92.0786 15.428 91.4426 15.2 90.5306 15.2H89.1626V26H85.2026V0.799998ZM90.6026 11.6C91.3946 11.6 91.9826 11.396 92.3666 10.988C92.7746 10.58 92.9786 9.896 92.9786 8.936V6.992C92.9786 6.08 92.8106 5.42 92.4746 5.012C92.1626 4.604 91.6586 4.4 90.9626 4.4H89.1626V11.6H90.6026ZM104.87 26.36C102.95 26.36 101.498 25.82 100.514 24.74C99.5301 23.636 99.0381 22.064 99.0381 20.024V18.584H102.782V20.312C102.782 21.944 103.466 22.76 104.834 22.76C105.506 22.76 106.01 22.568 106.346 22.184C106.706 21.776 106.886 21.128 106.886 20.24C106.886 19.184 106.646 18.26 106.166 17.468C105.686 16.652 104.798 15.68 103.502 14.552C101.87 13.112 100.73 11.816 100.082 10.664C99.4341 9.488 99.1101 8.168 99.1101 6.704C99.1101 4.712 99.6141 3.176 100.622 2.096C101.63 0.991999 103.094 0.439999 105.014 0.439999C106.91 0.439999 108.338 0.991999 109.298 2.096C110.282 3.176 110.774 4.736 110.774 6.776V7.82H107.03V6.524C107.03 5.66 106.862 5.036 106.526 4.652C106.19 4.244 105.698 4.04 105.05 4.04C103.73 4.04 103.07 4.844 103.07 6.452C103.07 7.364 103.31 8.216 103.79 9.008C104.294 9.8 105.194 10.76 106.49 11.888C108.146 13.328 109.286 14.636 109.91 15.812C110.534 16.988 110.846 18.368 110.846 19.952C110.846 22.016 110.33 23.6 109.298 24.704C108.29 25.808 106.814 26.36 104.87 26.36Z" fill="white"/>
</svg>
