<svg width="45" height="60" viewBox="0 0 45 60" fill="none" xmlns="http://www.w3.org/2000/svg">
<path d="M22.8252 10.3144L26.3899 16.6858L33.6412 18.108L33.4771 18.955L33.6428 18.108C34.1116 18.2002 34.4164 18.655 34.3242 19.1222C34.2882 19.3051 34.196 19.4629 34.0694 19.5832L29.0841 24.9389L29.964 32.2527H29.9656C30.0234 32.7231 29.6842 33.1545 29.2107 33.2092C29.0248 33.2326 28.845 33.1935 28.6934 33.1123L22.0391 30.0398L15.3332 33.1357V33.1373C14.9003 33.3373 14.3846 33.1482 14.1846 32.7153C14.1095 32.5528 14.0892 32.3778 14.1158 32.2137L14.9941 24.9389L9.96973 19.5411L10.6011 18.955L9.96816 19.5411C9.6431 19.1925 9.66186 18.6471 10.0119 18.3221C10.1463 18.2002 10.3073 18.1252 10.4729 18.1017L17.6868 16.6858L21.2843 10.2565L22.0391 10.6738L21.2827 10.2534C21.514 9.83772 22.0422 9.6877 22.4595 9.92055C22.6267 10.0143 22.7502 10.155 22.8252 10.3144ZM25.832 17.4547L25.0787 17.872L22.0391 12.4382L19.0323 17.811C18.9198 18.0548 18.6948 18.2439 18.4119 18.3002L18.2431 17.4547L18.4103 18.3002L12.2873 19.5004L16.4928 24.0184C16.685 24.2013 16.7928 24.4654 16.7585 24.7482H16.7569L16.0114 30.9244L21.625 28.3348C21.8578 28.2083 22.1438 28.1895 22.4032 28.3098L22.4001 28.3114L28.0636 30.9244L27.3244 24.7858C27.2822 24.5326 27.3541 24.2622 27.5432 24.0591L28.1793 24.6451L27.5448 24.0591L31.7909 19.5004L25.7038 18.3065C25.4491 18.2674 25.2116 18.1158 25.0756 17.8736L25.832 17.4547Z" fill="#050B20"/>
<mask id="mask0_2054_198" style="mask-type:luminance" maskUnits="userSpaceOnUse" x="0" y="0" width="44" height="44">
<path d="M0.193359 0H43.8013V43.4079H0.193359V0Z" fill="white"/>
</mask>
<g mask="url(#mask0_2054_198)">
<path d="M22.0379 0C27.9999 0 33.3947 2.40825 37.3016 6.30271C41.207 10.1956 43.6247 15.5731 43.6247 21.5133C43.6247 27.455 41.207 32.8341 37.3016 36.727C33.3947 40.6199 27.9999 43.0266 22.0379 43.0266C16.0759 43.0266 10.678 40.6199 6.77263 36.727C2.86567 32.8341 0.451172 27.455 0.451172 21.5133C0.451172 15.5731 2.86567 10.1956 6.77263 6.30271C10.678 2.40825 16.0759 0 22.0379 0ZM36.078 7.52012C32.4851 3.93822 27.5217 1.72375 22.0379 1.72375C16.5541 1.72375 11.5891 3.93822 7.99786 7.52012C4.40345 11.1005 2.18117 16.0482 2.18117 21.5133C2.18117 26.9783 4.40345 31.9261 7.99786 35.5065C11.5891 39.0884 16.5541 41.3028 22.0379 41.3028C27.5217 41.3028 32.4851 39.0884 36.078 35.5065C39.6708 31.9261 41.8947 26.9783 41.8947 21.5133C41.8947 16.0482 39.6708 11.1005 36.078 7.52012Z" fill="#050B20"/>
</g>
<mask id="mask1_2054_198" style="mask-type:luminance" maskUnits="userSpaceOnUse" x="24" y="37" width="21" height="23">
<path d="M24.5996 37.5989H44.0782V59.9998H24.5996V37.5989Z" fill="white"/>
</mask>
<g mask="url(#mask1_2054_198)">
<path d="M34.5796 38.1631L43.9578 54.3504L43.961 54.3489C44.2001 54.7615 44.0594 55.2897 43.6453 55.5272C43.3233 55.7101 42.9358 55.6694 42.6654 55.4491L35.5172 50.295L36.4955 59.0435H36.4971C36.5502 59.5154 36.208 59.9436 35.7329 59.9952C35.3531 60.039 34.9999 59.8264 34.8515 59.4967L24.8794 42.2842L24.8762 42.2873C24.6371 41.8747 24.7778 41.3481 25.1919 41.1105C25.2935 41.0511 25.4029 41.0152 25.5138 41.0011C26.9235 40.7527 28.2784 40.3588 29.5599 39.8353C30.8836 39.2961 32.1385 38.6148 33.3028 37.8131L33.7935 38.521L33.3028 37.8115C33.695 37.5411 34.2326 37.6396 34.5045 38.0318C34.5342 38.0756 34.5577 38.1178 34.5796 38.1631ZM40.4478 51.725L33.5044 39.74C32.4651 40.3901 31.3634 40.9574 30.2131 41.4262C29.1692 41.8544 28.0831 42.2014 26.9704 42.4608L34.3233 55.1521L33.5903 48.6056C33.5512 48.3853 33.5997 48.1493 33.7419 47.954C34.0201 47.568 34.5624 47.482 34.9484 47.7602L34.442 48.4587L34.9484 47.7633L40.4478 51.725Z" fill="#050B20"/>
</g>
<mask id="mask2_2054_198" style="mask-type:luminance" maskUnits="userSpaceOnUse" x="0" y="37" width="20" height="23">
<path d="M0 37.5991H19.3973V60.0001H0V37.5991Z" fill="white"/>
</mask>
<g mask="url(#mask2_2054_198)">
<path d="M10.5722 39.74L3.6303 51.725L9.12661 47.7633L9.63452 48.4587L9.12661 47.7602C9.51418 47.482 10.0549 47.568 10.3346 47.954C10.4784 48.1493 10.5237 48.3853 10.4878 48.6041L9.75485 55.1475L17.1046 42.4608C15.9919 42.2014 14.9089 41.8544 13.8618 41.4262C12.7132 40.9574 11.613 40.3901 10.5722 39.74ZM0.118725 54.3504L9.49699 38.1631C9.51731 38.1178 9.54231 38.0756 9.57044 38.0318C9.84237 37.6396 10.3831 37.5411 10.7754 37.8115L10.2831 38.521L10.7722 37.8131C11.9381 38.6148 13.1914 39.2961 14.5182 39.8353C15.7981 40.3588 17.1515 40.7527 18.5643 41.0011C18.6737 41.0152 18.7831 41.0511 18.8846 41.1105C19.2972 41.3481 19.4394 41.8747 19.2019 42.2873L18.4517 41.856L19.1972 42.2873L9.21882 59.5139C9.06254 59.8343 8.71716 60.0374 8.34366 59.9952C7.86701 59.9436 7.52632 59.5154 7.57789 59.0435H7.58102L8.56089 50.295L1.41271 55.4491C1.14079 55.6694 0.751652 55.7101 0.432844 55.5272C0.0187067 55.2897 -0.123507 54.7615 0.117162 54.3489L0.118725 54.3504Z" fill="#050B20"/>
</g>
<path d="M22.0388 3.74609C26.9616 3.74609 31.4186 5.73396 34.6458 8.95017C37.8729 12.1648 39.867 16.6078 39.867 21.5134C39.867 26.4205 37.8729 30.8635 34.6458 34.0782C31.4186 37.2928 26.9616 39.2822 22.0388 39.2822C17.1145 39.2822 12.6574 37.2928 9.43181 34.0782C6.20466 30.8635 4.20898 26.4205 4.20898 21.5134C4.20898 16.6078 6.20466 12.1648 9.43181 8.95017C12.6574 5.73396 17.1145 3.74609 22.0388 3.74609ZM33.4221 10.1691C30.5091 7.26548 26.4849 5.46984 22.0388 5.46984C17.5927 5.46984 13.5669 7.26548 10.6555 10.1691C7.74244 13.0712 5.93899 17.0829 5.93899 21.5134C5.93899 25.9439 7.74244 29.9555 10.6555 32.8592C13.5669 35.7613 17.5927 37.5585 22.0388 37.5585C26.4849 37.5585 30.5091 35.7613 33.4221 32.8592C36.3351 29.9555 38.1386 25.9439 38.1386 21.5134C38.1386 17.0829 36.3351 13.0712 33.4221 10.1691Z" fill="#050B20"/>
</svg>
