<svg width="66" height="60" viewBox="0 0 66 60" fill="none" xmlns="http://www.w3.org/2000/svg">
<path d="M7.44735 33.536L4.44803 36.5217H32.6087C33.3254 36.5217 33.913 37.1094 33.913 37.8261C33.913 38.5445 33.3254 39.1304 32.6087 39.1304H2.6087V49.5652H6.52174C7.23845 49.5652 7.82609 50.1529 7.82609 50.8696C7.82609 51.588 7.23845 52.1739 6.52174 52.1739H5.21739V54.7826C5.21739 56.2177 6.39097 57.3913 7.82609 57.3913C9.26121 57.3913 10.4348 56.2177 10.4348 54.7826V50.8696C10.4348 50.1529 11.0224 49.5652 11.7391 49.5652H32.4779C33.1963 49.5652 33.7823 50.1529 33.7823 50.8696C33.7823 51.588 33.1963 52.1739 32.4779 52.1739H13.0435V54.7826C13.0435 57.6664 10.7082 60 7.82609 60C4.94395 60 2.6087 57.6664 2.6087 54.7826V52.1739H1.30435C0.587636 52.1739 0 51.588 0 50.8696V37.8261C0 37.7361 0.0135868 37.6579 0.0254755 37.5662C0.0390625 37.5136 0.0526493 37.4609 0.078125 37.41C0.091712 37.3828 0.0917123 37.3437 0.103601 37.3183C0.130774 37.2656 0.15625 37.213 0.195313 37.1484C0.208899 37.123 0.222487 37.1094 0.234375 37.0839C0.287025 37.0177 0.339674 36.9395 0.390625 36.8869L5.37364 31.9056L5.55707 31.2789H3.91304C1.76121 31.2789 0 29.5177 0 27.3658C0 25.214 1.76121 23.4528 3.91304 23.4528C4.62976 23.4528 5.21739 24.0404 5.21739 24.7571C5.21739 25.4738 4.62976 26.0615 3.91304 26.0615C3.19633 26.0615 2.6087 26.6491 2.6087 27.3658C2.6087 28.0825 3.19633 28.6702 3.91304 28.6702H6.28736L10.4874 13.9708C10.6437 13.4086 11.1651 13.018 11.7391 13.018H32.6087C33.3254 13.018 33.913 13.6056 33.913 14.3224C33.913 15.0391 33.3254 15.6267 32.6087 15.6267H12.7174L7.77344 32.962C7.7089 33.1827 7.6036 33.3798 7.44735 33.536ZM48.2609 0H37.8261C37.1094 0 36.5217 0.587636 36.5217 1.30435V3.91304C36.5217 4.63145 37.1094 5.21739 37.8261 5.21739C38.5428 5.21739 39.1304 4.63145 39.1304 3.91304V2.6087H46.9565V10.4348H45.6522C44.9355 10.4348 44.3478 11.0224 44.3478 11.7391C44.3478 12.4575 44.9355 13.0435 45.6522 13.0435H48.2609C48.9776 13.0435 49.5652 12.4575 49.5652 11.7391V1.30435C49.5652 0.587636 48.9776 0 48.2609 0ZM49.5652 16.9565V27.3913C49.5652 28.1097 48.9776 28.6957 48.2609 28.6957H37.8261C37.1094 28.6957 36.5217 28.1097 36.5217 27.3913V16.9565C36.5217 16.2398 37.1094 15.6522 37.8261 15.6522H48.2609C48.9776 15.6522 49.5652 16.2398 49.5652 16.9565ZM46.9565 18.2609H39.1304V26.087H46.9565V18.2609ZM49.5652 32.6087V43.0435C49.5652 43.7619 48.9776 44.3478 48.2609 44.3478H37.8261C37.1094 44.3478 36.5217 43.7619 36.5217 43.0435V32.6087C36.5217 31.892 37.1094 31.3043 37.8261 31.3043H48.2609C48.9776 31.3043 49.5652 31.892 49.5652 32.6087ZM46.9565 33.913H39.1304V41.7391H46.9565V33.913ZM49.5652 48.2609V58.6957C49.5652 59.4141 48.9776 60 48.2609 60H37.8261C37.1094 60 36.5217 59.4141 36.5217 58.6957V48.2609C36.5217 47.5442 37.1094 46.9565 37.8261 46.9565H48.2609C48.9776 46.9565 49.5652 47.5442 49.5652 48.2609ZM46.9565 49.5652H39.1304V57.3913H46.9565V49.5652ZM53.4783 5.21739H63.913C64.6298 5.21739 65.2174 4.63145 65.2174 3.91304C65.2174 3.19633 64.6298 2.6087 63.913 2.6087H53.4783C52.7616 2.6087 52.1739 3.19633 52.1739 3.91304C52.1739 4.63145 52.7616 5.21739 53.4783 5.21739ZM53.4783 10.4348H61.3044C62.0211 10.4348 62.6087 9.84884 62.6087 9.13043C62.6087 8.41372 62.0211 7.82609 61.3044 7.82609H53.4783C52.7616 7.82609 52.1739 8.41372 52.1739 9.13043C52.1739 9.84884 52.7616 10.4348 53.4783 10.4348ZM63.913 18.2609H53.4783C52.7616 18.2609 52.1739 18.8485 52.1739 19.5652C52.1739 20.2836 52.7616 20.8696 53.4783 20.8696H63.913C64.6298 20.8696 65.2174 20.2836 65.2174 19.5652C65.2174 18.8485 64.6298 18.2609 63.913 18.2609ZM53.4783 26.087H61.3044C62.0211 26.087 62.6087 25.501 62.6087 24.7826C62.6087 24.0659 62.0211 23.4783 61.3044 23.4783H53.4783C52.7616 23.4783 52.1739 24.0659 52.1739 24.7826C52.1739 25.501 52.7616 26.087 53.4783 26.087ZM63.913 33.913H53.4783C52.7616 33.913 52.1739 34.5007 52.1739 35.2174C52.1739 35.9358 52.7616 36.5217 53.4783 36.5217H63.913C64.6298 36.5217 65.2174 35.9358 65.2174 35.2174C65.2174 34.5007 64.6298 33.913 63.913 33.913ZM53.4783 41.7391H61.3044C62.0211 41.7391 62.6087 41.1532 62.6087 40.4348C62.6087 39.7181 62.0211 39.1304 61.3044 39.1304H53.4783C52.7616 39.1304 52.1739 39.7181 52.1739 40.4348C52.1739 41.1532 52.7616 41.7391 53.4783 41.7391ZM63.913 49.5652H53.4783C52.7616 49.5652 52.1739 50.1529 52.1739 50.8696C52.1739 51.588 52.7616 52.1739 53.4783 52.1739H63.913C64.6298 52.1739 65.2174 51.588 65.2174 50.8696C65.2174 50.1529 64.6298 49.5652 63.913 49.5652ZM61.3044 54.7826H53.4783C52.7616 54.7826 52.1739 55.3702 52.1739 56.087C52.1739 56.8054 52.7616 57.3913 53.4783 57.3913H61.3044C62.0211 57.3913 62.6087 56.8054 62.6087 56.087C62.6087 55.3702 62.0211 54.7826 61.3044 54.7826ZM37.8261 13.0435C38.1658 13.0435 38.4918 12.9144 38.7517 12.6664L43.9691 7.44905C44.4786 6.93954 44.4786 6.11753 43.9691 5.60971C43.4613 5.1002 42.6393 5.1002 42.1298 5.60971L37.8261 9.90149L36.143 8.21841C35.6352 7.7089 34.8132 7.7089 34.3037 8.21841C33.7959 8.72622 33.7959 9.54823 34.3037 10.0577L36.9124 12.6664C37.1603 12.9144 37.4864 13.0435 37.8261 13.0435Z" fill="#050B20"/>
</svg>
