<svg width="60" height="60" viewBox="0 0 60 60" fill="none" xmlns="http://www.w3.org/2000/svg">
<path d="M16.2592 16.2547C16.1275 15.4922 16.0616 14.7188 16.0616 13.9313C16.0616 6.25 22.3183 0 30.0066 0C37.6949 0 43.9515 6.25 43.9515 13.9313C43.9515 14.7047 43.8857 15.4922 43.754 16.2547C43.663 16.7797 43.2161 17.1469 42.7034 17.1469C42.65 17.1469 42.5842 17.1469 42.5183 17.1344C41.9413 17.0422 41.5461 16.4781 41.6386 15.9C41.7437 15.2563 41.7954 14.6 41.7954 13.9313C41.7954 7.43125 36.5 2.14063 29.994 2.14063C23.4881 2.14063 18.1911 7.43125 18.1911 13.9313C18.1911 14.5875 18.2444 15.2563 18.3495 15.9C18.4404 16.4781 18.0594 17.0422 17.4682 17.1344C16.8896 17.2266 16.3517 16.8328 16.2592 16.2547ZM59.9068 34.7922C59.7359 35.3438 59.3689 35.7906 58.8687 36.0656L53.2048 39.1125C52.8896 39.2828 52.5337 39.375 52.1918 39.375C51.9817 39.375 51.7716 39.3484 51.574 39.2828C51.2588 39.1906 50.9969 39.0203 50.7602 38.8109L48.7232 40.9891C49.8664 42.4734 49.813 44.0094 49.2344 45.1516C48.6699 46.2406 47.6444 47.0297 46.5546 47.3438C46.7913 48.4469 46.4746 49.5891 45.6074 50.4688C44.8454 51.2438 43.7414 51.7297 42.5324 51.65C42.4791 52.3719 42.1514 53.0297 41.6778 53.5406C40.8373 54.4344 39.4966 54.9328 38.1293 54.775C38.0901 55.5766 37.7482 56.325 37.1037 56.9156C36.3558 57.625 35.2377 58.0438 34.0287 58.0438C33.4642 58.0438 32.8856 57.9391 32.307 57.7422C32.1752 57.9266 32.0435 58.1094 31.8726 58.2672L31.1764 58.9641C30.4801 59.6594 29.5738 60 28.6533 60C27.747 60 26.8265 59.6594 26.1303 58.9641C25.6567 58.4906 25.3541 57.9125 25.2098 57.3094C24.8554 57.4141 24.4995 57.4922 24.1451 57.4922C23.2387 57.4922 22.3183 57.1516 21.622 56.4563C21.0701 55.9047 20.7408 55.2078 20.6357 54.5C20.4256 54.5391 20.2155 54.5656 19.9912 54.5656C19.0849 54.5656 18.1644 54.2234 17.4682 53.5281C16.8378 52.8984 16.5085 52.0703 16.4427 51.2438C16.3768 51.2438 16.3125 51.2563 16.2467 51.2563C15.287 51.2563 14.3932 50.8891 13.722 50.2188C12.4221 48.9203 12.3562 46.8719 13.4853 45.4672L8.92527 39.0469C8.7669 39.1516 8.59754 39.2438 8.39997 39.2953C8.18984 39.3609 7.99226 39.3875 7.78214 39.3875C7.42775 39.3875 7.08591 39.2953 6.76916 39.125L1.1319 36.0656C0.631681 35.7906 0.264749 35.3438 0.0938282 34.7922C-0.0770927 34.2406 -0.0112333 33.6641 0.264749 33.1641L8.42662 18.0141C8.70261 17.5156 9.14951 17.1469 9.70147 16.9766C10.2534 16.8063 10.8305 16.8719 11.3307 17.1469L16.9946 20.1938C17.4948 20.4688 17.8633 20.9156 18.0343 21.4672C18.2036 22.0188 18.1393 22.5953 17.8633 23.0953L17.7975 23.2125C18.6646 23.8297 19.2683 24.0922 20.2813 23.975C21.898 23.7516 27.4051 23.1078 29.7698 24.1188C29.8498 24.1578 29.9156 24.1969 29.994 24.2375C30.085 24.1844 30.165 24.1313 30.27 24.0922C32.6613 23.0813 38.1826 23.725 39.8118 23.9484C40.7715 24.0531 41.3752 23.8172 42.2031 23.2266L42.1247 23.0953C41.8487 22.5953 41.7954 22.0047 41.9538 21.4672C42.1247 20.9156 42.4932 20.4688 42.9919 20.1938L48.6574 17.1469C49.156 16.8719 49.7346 16.8188 50.2866 16.9766C50.8386 17.1469 51.2855 17.5156 51.5615 18.0141L59.7233 33.1641C60.0119 33.6766 60.0777 34.2547 59.9068 34.7922ZM31.1372 26.0625C28.6533 27.2047 27.2342 31.4188 25.9327 36.1844C27.0884 36.5391 27.9696 36.5656 28.68 36.2625C29.8231 35.7641 30.8079 34.3328 31.8867 31.5891L32.3587 30.3938L46.9215 39.3875C47.0015 39.4406 47.0673 39.4922 47.1457 39.5453L49.5904 36.9203L43.2287 25.1172C42.2423 25.7859 41.1384 26.2453 39.5484 26.0625C35.1201 25.4703 32.136 25.6281 31.1372 26.0625ZM7.8088 37.2344L15.9707 22.0844L10.3052 19.0375L2.14331 34.175L7.8088 37.2344ZM17.2847 48.6828L17.4682 48.5C17.4823 48.4859 17.4823 48.4859 17.4948 48.4734L18.6254 47.3438C19.1633 46.7922 19.1633 45.9 18.6113 45.3484C18.0594 44.7969 17.153 44.7969 16.601 45.3484L15.2729 46.675C14.7209 47.2266 14.7209 48.1313 15.2729 48.6828C15.8123 49.2219 16.7453 49.2219 17.2847 48.6828ZM21.0168 51.9922L23.5539 49.4578C24.1059 48.9063 24.1059 48 23.5539 47.4484C23.2779 47.1734 22.9094 47.0297 22.5551 47.0297C22.2007 47.0297 21.8322 47.1734 21.5562 47.4484L20.1496 48.8406C20.1371 48.8547 20.1371 48.8547 20.123 48.8672L18.9924 49.9969C18.4545 50.5484 18.4545 51.4406 19.0065 51.9922C19.5584 52.5438 20.4648 52.5438 21.0168 51.9922ZM25.1706 54.9328L26.077 54.0266C26.1036 54 26.1303 53.9609 26.1554 53.9219L26.5364 53.5406C27.0366 52.9891 27.0366 52.1234 26.4972 51.5844C25.9452 51.0328 25.0389 51.0328 24.4869 51.5844L23.1588 52.9109C22.6068 53.4625 22.6068 54.3688 23.1588 54.9203C23.7107 55.4844 24.6186 55.4844 25.1706 54.9328ZM30.4268 56.6656C30.4143 56.6531 30.3876 56.6391 30.3751 56.6266L30.6903 56.2594C30.8878 55.7469 30.7828 55.1563 30.3751 54.7359C30.1116 54.4734 29.7573 54.3281 29.3762 54.3281C28.9952 54.3281 28.6392 54.4734 28.3773 54.7359L28.1014 55.0109C28.0747 55.0375 28.048 55.0766 28.023 55.1031L27.6403 55.4844C27.1291 56.0359 27.1417 56.9016 27.6811 57.4406C28.2331 57.9922 29.1394 57.9922 29.6914 57.4406L30.3876 56.7453C30.4017 56.7188 30.4143 56.6922 30.4268 56.6656ZM45.7784 41.2L33.3842 33.5453C32.2286 36.1453 31.0447 37.5766 29.5205 38.2328C28.0872 38.85 26.4063 38.7313 24.2376 37.8516L23.3563 37.4969L23.5931 36.5781C24.7629 32.1406 25.9594 28.2156 27.9822 25.8516C26.5631 25.6281 24.0008 25.6281 20.5307 26.1016C18.8748 26.2844 17.7708 25.8 16.7594 25.1031L10.2534 37.1688L15.011 43.8656L15.0627 43.8125C16.4568 42.4203 18.7164 42.4203 20.1104 43.8125C20.5307 44.2328 20.8066 44.7188 20.965 45.2438C22.2916 44.5875 23.9475 44.7969 25.0514 45.9125C25.906 46.7672 26.2353 47.9609 26.0378 49.0766C26.7607 49.1953 27.4443 49.5109 27.9963 50.0625C28.6 50.6656 28.9293 51.4406 29.0077 52.2406C30.0458 52.15 31.1246 52.4641 31.8726 53.2125C32.5296 53.8688 32.8856 54.7359 32.9122 55.6688C34.0287 56.075 35.1201 55.8125 35.6329 55.3266C36.224 54.775 35.9606 54.0656 35.5796 53.5406L33.9895 52.3984C33.516 52.0578 33.3983 51.3875 33.7527 50.9016C34.0946 50.4156 34.7641 50.3109 35.2503 50.6656L36.9861 51.9125C37.0253 51.9391 37.0379 51.9781 37.0786 52.0047L37.0912 51.9922C38.1685 52.9766 39.5217 52.6609 40.1003 52.0438C40.5347 51.5844 40.4422 51.0594 39.8636 50.4953L37.0128 48.4859C36.5251 48.1453 36.4075 47.475 36.7493 46.9891C37.0912 46.5047 37.7608 46.3859 38.2469 46.7266L41.1917 48.8016C41.2184 48.8281 41.2309 48.8547 41.2576 48.8797L41.2701 48.8672C42.3349 49.7859 43.4654 49.55 44.0566 48.9328C44.2667 48.7234 44.8846 47.9344 44.0049 46.95L43.9515 46.8844L40.127 44.4297C39.6283 44.1141 39.4825 43.4453 39.8118 42.9453C40.127 42.4469 40.7981 42.3031 41.2968 42.6313L45.4365 45.2953C46.0418 45.3609 46.9215 44.9016 47.3167 44.1406C47.9862 42.8797 46.633 41.7516 45.7784 41.2ZM57.8573 34.175L49.6954 19.025L44.03 22.0703L52.1918 37.2219L57.8573 34.175ZM53.5466 34.5703C54.4405 34.5703 55.1492 33.8469 55.1492 32.9672C55.1492 32.075 54.4263 31.3656 53.5466 31.3656C52.6654 31.3656 51.9425 32.0875 51.9425 32.9672C51.9425 33.8469 52.6528 34.5703 53.5466 34.5703ZM6.45397 31.3531C5.56017 31.3531 4.85139 32.075 4.85139 32.9547C4.85139 33.8469 5.57428 34.5563 6.45397 34.5563C7.33524 34.5563 8.05812 33.8344 8.05812 32.9547C8.07067 32.075 7.34778 31.3531 6.45397 31.3531ZM34.2263 16.6094C34.2263 14.5484 32.5437 12.8547 30.4676 12.8547H29.3888C28.495 12.8547 27.7862 12.1313 27.7862 11.2516C27.7862 10.3594 28.5091 9.65 29.3888 9.65H30.4676C30.9788 9.65 31.4524 9.8875 31.755 10.2938C32.1094 10.7672 32.7805 10.8578 33.2525 10.5047C33.7261 10.15 33.8186 9.47969 33.4642 9.00781C32.8589 8.20625 31.9651 7.70781 30.9788 7.57656C30.9788 7.55 30.9929 7.5375 30.9929 7.51094V6.43438C30.9929 5.84375 30.5193 5.35781 29.9156 5.35781C29.3229 5.35781 28.8368 5.84375 28.8368 6.43438V7.51094C28.8368 7.52344 28.8509 7.55 28.8509 7.5625C27.0366 7.825 25.6175 9.375 25.6175 11.2656C25.6175 13.3266 27.3001 15.0203 29.3762 15.0203H30.4535C31.3473 15.0203 32.0576 15.7422 32.0576 16.6219C32.0576 17.5016 31.3347 18.2234 30.4535 18.2234H29.3762C28.8635 18.2234 28.3899 17.9875 28.0872 17.5813C27.7329 17.1078 27.0633 17.0156 26.5897 17.3703C26.1162 17.725 26.0252 18.3938 26.3796 18.8672C26.9833 19.6813 27.8771 20.1672 28.8634 20.3109C28.8634 20.3375 28.8509 20.35 28.8509 20.3766V21.4531C28.8509 22.0438 29.3229 22.5297 29.9282 22.5297C30.5193 22.5297 31.0055 22.0438 31.0055 21.4531V20.35C31.0055 20.3375 30.9929 20.3109 30.9929 20.2984C32.8197 20.0484 34.2263 18.5 34.2263 16.6094Z" fill="#050B20"/>
</svg>
