<svg width="60" height="60" viewBox="0 0 60 60" fill="none" xmlns="http://www.w3.org/2000/svg">
<path d="M31.9838 30.2828C32.076 31.1719 31.8291 32.0984 31.2213 32.8438L31.1557 32.9172C30.7791 33.2969 30.1682 33.2969 29.7916 32.9203C29.4244 32.5531 29.415 31.9625 29.765 31.5844C30.0088 31.2594 30.1088 30.8609 30.0682 30.4797C30.0291 30.0953 29.851 29.7281 29.5463 29.4594L28.3682 28.4984C28.0338 28.2266 27.6166 28.1172 27.215 28.1578C26.8135 28.1984 26.4275 28.3906 26.1572 28.725C25.8853 29.0578 25.7744 29.4766 25.8166 29.8766C25.8572 30.2781 26.051 30.6625 26.3838 30.9359L27.5166 31.8578C28.265 32.4656 28.6947 33.3219 28.7853 34.2125C28.876 35.1031 28.6291 36.0281 28.0213 36.775C27.4135 37.5219 26.5572 37.9531 25.6666 38.0453C24.8494 38.1281 24.0025 37.9234 23.2916 37.4188L22.5525 38.3281C22.2166 38.7391 21.6103 38.8031 21.1978 38.4672C20.7869 38.1313 20.7244 37.525 21.0588 37.1141L21.7994 36.2031C21.1603 35.6094 20.7853 34.8219 20.7025 34.0047C20.6119 33.1156 20.8588 32.1891 21.4666 31.4422L21.5322 31.3688C21.9088 30.9891 22.5182 30.9891 22.8963 31.3656C23.2635 31.7328 23.2713 32.3234 22.9244 32.7C22.6791 33.0266 22.5807 33.4234 22.6197 33.8063C22.6588 34.1906 22.8369 34.5578 23.1416 34.8266L24.3197 35.7875C24.6541 36.0594 25.0697 36.1688 25.4728 36.1281C25.8744 36.0891 26.2603 35.8953 26.5307 35.5609C26.8025 35.2281 26.9119 34.8109 26.8713 34.4094C26.8307 34.0078 26.6369 33.6234 26.3025 33.35L25.1697 32.4281C24.4228 31.8203 23.9932 30.9641 23.9025 30.0734C23.8103 29.1828 24.0572 28.2578 24.665 27.5109C25.2728 26.7641 26.1291 26.3328 27.0197 26.2406C27.8385 26.1578 28.6853 26.3625 29.3963 26.8672L30.1353 25.9578C30.4713 25.5469 31.0775 25.4828 31.4885 25.8188C31.901 26.1547 31.9635 26.7609 31.6275 27.1719L30.8869 28.0828C31.526 28.6766 31.901 29.4641 31.9838 30.2828ZM25.1119 44.5438L14.4525 35.8719C14.0416 35.5359 13.4353 35.5984 13.0994 36.0109C12.765 36.4219 12.8275 37.0281 13.2385 37.3641L23.8978 46.0359C24.3088 46.3719 24.915 46.3078 25.251 45.8969C25.5869 45.4844 25.5228 44.8781 25.1119 44.5438ZM22.3103 47.9844L11.6525 39.3125C11.24 38.9781 10.6338 39.0406 10.2994 39.4516C9.96347 39.8641 10.026 40.4703 10.4385 40.8047L21.0963 49.4781C21.5088 49.8125 22.115 49.75 22.4494 49.3391C22.7853 48.9266 22.7228 48.3203 22.3103 47.9844ZM59.9994 13.9844C59.9994 17.8453 58.4338 21.3406 55.9041 23.8719C53.3744 26.4 49.8775 27.9641 46.0135 27.9656C45.4853 27.9656 44.9713 27.9422 44.4682 27.8906C44.301 27.875 44.1353 27.8531 43.9697 27.8313L43.2775 33.6297C43.2525 33.8422 43.1603 34.0297 43.026 34.1734L22.401 59.525C22.065 59.9375 21.4588 60 21.0478 59.6641L0.47441 42.9234C0.0619103 42.5891 -0.000589778 41.9828 0.335348 41.5703L21.0025 16.1703C21.1228 16.0234 21.276 15.9203 21.4447 15.8656L32.1338 12.2797C32.5197 9.1 33.9744 6.24844 36.126 4.09531C38.6572 1.56562 42.1525 0 46.015 0C49.876 0 53.3728 1.56562 55.9041 4.09531C58.4338 6.62656 59.9994 10.125 59.9994 13.9844ZM41.3978 33.1313L42.9588 20.0563L34.801 13.4172L33.9682 13.6969C33.965 13.7938 33.9603 13.8906 33.9603 13.9859C33.9603 15.3906 34.2072 16.7281 34.651 17.9688C34.7635 17.9469 34.876 17.9328 34.9916 17.9234H34.9978C35.926 17.85 36.7994 18.1594 37.4588 18.7203C38.1228 19.2828 38.5697 20.0984 38.6463 21.0328V21.0375C38.7213 21.9656 38.4103 22.8391 37.8494 23.5C37.2869 24.1625 36.4697 24.6125 35.5353 24.6875C34.6057 24.7641 33.7307 24.4516 33.0682 23.8906C32.4057 23.3281 31.9557 22.5109 31.8807 21.5766C31.8057 20.6469 32.1166 19.7703 32.6775 19.1094C32.7557 19.0172 32.8385 18.9313 32.9244 18.8484C32.3916 17.4391 32.076 15.9266 32.0338 14.3438L22.3182 17.6016L2.43535 42.0375L21.5166 57.5625L41.3978 33.1313ZM33.8025 21.425C33.8369 21.8281 34.0275 22.1781 34.3119 22.4188C34.5432 22.6156 34.8385 22.7375 35.1557 22.7625C34.6791 22.1609 34.251 21.5234 33.8697 20.8531C33.8119 21.0313 33.7869 21.225 33.8025 21.425ZM36.7228 21.2172L36.7182 21.1531C36.6791 20.7641 36.4885 20.425 36.2119 20.1906C36.0182 20.025 35.7807 19.9125 35.5197 19.8672C35.865 20.4781 36.2557 21.0594 36.6932 21.6047C36.7197 21.4797 36.7307 21.3484 36.7228 21.2172ZM58.0682 13.9844C58.0682 10.6562 56.7197 7.64219 54.5385 5.46094C52.3572 3.27969 49.3432 1.93125 46.015 1.93125C42.6853 1.93125 39.6713 3.28125 37.49 5.46094C35.8463 7.10312 34.6775 9.22031 34.1978 11.5875L34.69 11.4219C35.0197 11.3109 35.3697 11.3906 35.6182 11.6L44.5869 18.8984C44.851 19.1141 44.9713 19.4422 44.9353 19.7578L44.1994 25.9203C44.3525 25.9422 44.5057 25.9609 44.6588 25.9766C45.1072 26.0203 45.5603 26.0438 46.015 26.0438C49.34 26.0422 52.3557 24.6906 54.54 22.5078C56.7197 20.3266 58.0682 17.3141 58.0682 13.9844Z" fill="#050B20"/>
</svg>
