<svg width="15" height="24" viewBox="0 0 15 24" fill="none" xmlns="http://www.w3.org/2000/svg">
<path d="M10.3597 0.960098C10.733 0.533431 11.253 0.320098 11.9197 0.320098C12.5864 0.320098 13.133 0.533431 13.5597 0.960098C14.573 1.9201 14.573 2.98676 13.5597 4.1601L6.11969 12.0001L13.5597 19.7601C14.573 20.9334 14.573 22.0001 13.5597 22.9601C13.133 23.3868 12.5997 23.6001 11.9597 23.6001C11.3197 23.6001 10.7864 23.3868 10.3597 22.9601L1.31969 13.5201C0.893021 13.0934 0.679688 12.5734 0.679688 11.9601C0.679688 11.3468 0.893021 10.8268 1.31969 10.4001C6.81302 4.69343 9.82635 1.54676 10.3597 0.960098Z" fill="white"/>
</svg>
