<svg width="15" height="24" viewBox="0 0 15 24" fill="none" xmlns="http://www.w3.org/2000/svg">
<path d="M4.61922 0.960098L13.6592 10.4001C14.0859 10.8268 14.2992 11.3468 14.2992 11.9601C14.2992 12.5734 14.0859 13.0934 13.6592 13.5201L4.61922 22.9601C4.19255 23.3868 3.65922 23.6001 3.01922 23.6001C2.37922 23.6001 1.84589 23.3868 1.41922 22.9601C0.459219 22.0001 0.459219 20.9334 1.41922 19.7601L8.85922 12.0001L1.41922 4.1601C0.459219 2.98676 0.459219 1.9201 1.41922 0.960098C1.84589 0.533432 2.39255 0.320099 3.05922 0.320099C3.72589 0.320099 4.24589 0.533432 4.61922 0.960098Z" fill="white"/>
</svg>
